<svg xmlns="http://www.w3.org/2000/svg" width="89.871" height="78.475" viewBox="0 0 89.871 78.475"><g transform="translate(-1084.948 -555.506)"><path d="M1.542,0H0V8.33H1.487A1.932,1.932,0,0,0,3.2,7.067a6.869,6.869,0,0,0,.646-3.148Q3.844,0,1.542,0Z" transform="matrix(-0.616, 0.788, -0.788, -0.616, 1151.484, 571.679)" fill="none"/><g transform="matrix(-0.883, -0.469, 0.469, -0.883, 1134.963, 637.363)"><path d="M49.011,13.26C32.025-5.076,10.274-4.272,0,14.9,8.946,4.77,22.247-1.147,40.5,12.937A41.113,41.113,0,0,1,43.734,15.6q1.452,1.268,2.944,2.707l3.927.608h.013Z" transform="translate(0 3.829)" fill="#3c7bff"/><path d="M0,0Z" transform="translate(50.618 22.745)" fill="#3c7bff"/><path d="M0,0A6.981,6.981,0,0,0,.207,1.025h0L6.395,22.837a11.245,11.245,0,0,1,4.115,1.521Z" transform="translate(46.136 0)" fill="#3c7bff"/><path d="M.473.029A2.624,2.624,0,0,0,0,0L8,3.59a17.56,17.56,0,0,1,2.519-2Z" transform="translate(34.55 23.087)" fill="#3c7bff"/><path d="M18.655,12.1,14.09,1.521A11.245,11.245,0,0,0,9.975,0l.887,3.127L2.519,1.837A17.551,17.551,0,0,0,0,3.842l17.115,7.675h.079v.036l1.406.629Z" transform="translate(42.558 22.834)" fill="#3c7bff"/></g><g transform="translate(1123.48 552.036) rotate(25)"><path d="M49.011,13.26C32.025-5.076,10.274-4.272,0,14.9,8.946,4.77,22.247-1.147,40.5,12.937A41.114,41.114,0,0,1,43.734,15.6q1.452,1.268,2.944,2.707l3.927.608h.013Z" transform="translate(0 3.829)" fill="#3c7bff"/><path d="M0,0Z" transform="translate(50.619 22.745)" fill="#3c7bff"/><path d="M0,0A6.99,6.99,0,0,0,.207,1.025h0L6.395,22.837a11.246,11.246,0,0,1,4.115,1.521Z" transform="translate(46.136 0)" fill="#3c7bff"/><path d="M.473.029A2.626,2.626,0,0,0,0,0L8,3.59a17.555,17.555,0,0,1,2.519-2Z" transform="translate(34.55 23.087)" fill="#3c7bff"/><path d="M18.655,12.1,14.09,1.521A11.246,11.246,0,0,0,9.975,0l.887,3.127L2.519,1.837A17.559,17.559,0,0,0,0,3.842l17.115,7.675h.079v.036l1.406.629Z" transform="translate(42.558 22.834)" fill="#3c7bff"/></g><path d="M0,0,.079.036V0Z" transform="translate(1154.328 578.374) rotate(-22)" fill="#3c7bff"/></g></svg>