<svg xmlns="http://www.w3.org/2000/svg" viewBox="0 0 786.46 325.34"><defs><style>.cls-1{fill:none;}.cls-2{fill:#3c7bff;}.cls-3{fill:#333;}</style></defs><title>LogoF</title><g id="Layer_2" data-name="Layer 2"><g id="Layer_1-2" data-name="Layer 1"><path class="cls-1" d="M199.18,222.73q-9.08,0-16.06,7.45t-8.73,19.68l46.78-.05Q221.14,222.71,199.18,222.73Z"/><path class="cls-1" d="M54.45,180.68l-18.36,0,0,48.74,17.71,0q12.67,0,20.37-7.39a24.46,24.46,0,0,0,7.69-18.42Q81.87,180.66,54.45,180.68Z"/><path class="cls-2" d="M81.94,246.55v-.43q17.7-5.06,27.79-17.41t10.09-29.62q0-45.9-60.48-45.84L0,153.3.16,322.58l36.06,0L36.16,257H47.09a18.22,18.22,0,0,1,11.15,3.92q5.25,3.93,13.46,17.58l26.59,44,41.53,0-32-50.13Q93.64,250.48,81.94,246.55ZM74.21,222q-7.69,7.38-20.37,7.39l-17.71,0,0-48.74,18.36,0q27.42,0,27.45,22.93A24.46,24.46,0,0,1,74.21,222Z"/><path class="cls-2" d="M254.07,256.88q0-27.21-14.52-42.77t-40.18-15.53q-25.78,0-42.82,18.12t-17,47.07q0,29.07,16,45.33t44.87,16.24q26.78,0,43.27-9.32l0-25.9Q228.42,300,208.43,300q-32,0-33.91-28.05l79.56-.07Zm-79.68-7q1.74-12.24,8.73-19.68t16.06-7.45q22,0,22,27.08Z"/><path class="cls-2" d="M351.6,198.44q-25.68,0-38.88,22.22h-.44l0-19.24-35.3,0,.12,120.86,35.29,0-.06-69q0-12.12,6.65-20a21.09,21.09,0,0,1,16.71-7.83q21.09,0,21.12,29.27l.06,67.43,35.08,0-.07-74Q391.81,198.4,351.6,198.44Z"/><path class="cls-3" d="M699.67,219.27c-20.65-4.87-41-9.71-60.16-14.3A48.52,48.52,0,0,0,624.17,221q-9.42-22.83-34.88-22.8A45.29,45.29,0,0,0,567.22,204a44.45,44.45,0,0,0-16.82,16.14H550l0-18.91-35.3,0,.11,120.86,35.3,0L550,254.64q0-13.21,5.94-21.26a18.81,18.81,0,0,1,15.89-8q20,0,20,26.87l.07,69.83,35.18,0L627,254.24q0-12.12,6.21-20.55t15.62-8.43q20.22,0,20.24,27.74l.07,69,35.19,0-.07-75.08Q704.29,230.21,699.67,219.27Z"/><path class="cls-3" d="M733.89,227.31,734,321.9l35.19,0-.08-86.33Z"/><path class="cls-2" d="M641.17,100C438.89-7.29,179.88-2.59,57.54,109.62,164.07,50.32,322.46,15.7,539.79,98.11q19.5,7.08,38.53,15.59,17.29,7.42,35.06,15.84l46.76,3.56h.16Z"/><path class="cls-2" d="M660.3,133.09h0Z"/><path class="cls-2" d="M606.93,0a24,24,0,0,0,2.47,6V6l73.68,127.63a234.67,234.67,0,0,1,49,8.9Z"/><path class="cls-2" d="M474.6,135.26c-1.93-.14-3.8-.19-5.63-.16l95.3,21a252.24,252.24,0,0,1,30-11.73Z"/><path class="cls-2" d="M786.46,204.41l-54.36-61.9a234.67,234.67,0,0,0-49-8.9l10.56,18.3-99.34-7.55a252.24,252.24,0,0,0-30,11.73L768.12,201h.94v.21l16.74,3.68Z"/><polygon class="cls-2" points="768.12 201 769.06 201.21 769.06 201 768.12 201"/><path class="cls-2" d="M481,297.87q-15.3,0-15.31-19.33l-.05-50.92,27.54,0,0-26.33-27.54,0,.1-35.44-35-8-.2,16.92,0,26.55-19.88,0,0,26.34,19.89,0,.05,57q0,40.43,38.51,40.39,16.17,0,24.14-4.39l0-26.34A25.22,25.22,0,0,1,481,297.87Z"/></g></g></svg>