<svg xmlns="http://www.w3.org/2000/svg" width="32.174" height="28.094" viewBox="0 0 32.174 28.094"><g transform="translate(-1234.359 -539.417)"><g transform="matrix(-0.883, -0.469, 0.469, -0.883, 1252.264, 568.721)"><path d="M17.546,4.747C11.465-1.817,3.678-1.53,0,5.336c3.2-3.628,7.964-5.746,14.5-.7a14.719,14.719,0,0,1,1.158.954q.52.454,1.054.969l1.406.218h0Z" transform="translate(0 1.371)" fill="#fff"/><path d="M0,0Z" transform="translate(18.121 8.142)" fill="#fff"/><path d="M0,0A2.5,2.5,0,0,0,.074.367h0L2.289,8.176a4.026,4.026,0,0,1,1.473.545Z" transform="translate(16.517 0)" fill="#fff"/><path d="M.169.01A.939.939,0,0,0,0,0L2.865,1.285a6.287,6.287,0,0,1,.9-.718Z" transform="translate(12.369 8.265)" fill="#fff"/><path d="M6.678,4.332,5.044.544A4.026,4.026,0,0,0,3.571,0l.317,1.12L.9.658a6.283,6.283,0,0,0-.9.718L6.127,4.123h.028v.013l.5.225Z" transform="translate(15.236 8.174)" fill="#fff"/></g><g transform="translate(1248.153 538.174) rotate(25)"><path d="M17.546,4.747C11.465-1.817,3.678-1.53,0,5.336c3.2-3.628,7.964-5.746,14.5-.7a14.719,14.719,0,0,1,1.158.954q.52.454,1.054.969l1.406.218h0Z" transform="translate(0 1.371)" fill="#fff"/><path d="M0,0Z" transform="translate(18.121 8.142)" fill="#fff"/><path d="M0,0A2.5,2.5,0,0,0,.074.367h0L2.289,8.176a4.026,4.026,0,0,1,1.473.545Z" transform="translate(16.517 0)" fill="#fff"/><path d="M.169.01A.94.94,0,0,0,0,0L2.865,1.285a6.285,6.285,0,0,1,.9-.718Z" transform="translate(12.369 8.265)" fill="#fff"/><path d="M6.678,4.332,5.044.544A4.026,4.026,0,0,0,3.571,0l.317,1.12L.9.658a6.286,6.286,0,0,0-.9.718L6.127,4.123h.028v.013l.5.225Z" transform="translate(15.236 8.174)" fill="#fff"/></g></g></svg>